<?xml version="1.0" encoding="utf-8"?>
<svg viewBox="236.325 108.551 90 83.33" xmlns="http://www.w3.org/2000/svg">
  <path d="M 237.825 146.035 C 236.996 146.035 236.325 146.706 236.325 147.535 L 236.325 152.897 C 236.325 153.726 236.996 154.397 237.825 154.397 C 238.654 154.397 239.325 153.726 239.325 152.897 L 239.325 147.535 C 239.325 146.706 238.654 146.035 237.825 146.035 Z"/>
  <path d="M 242.943 146.035 C 242.114 146.035 241.443 146.706 241.443 147.535 L 241.443 152.897 C 241.443 153.726 242.114 154.397 242.943 154.397 C 243.772 154.397 244.443 153.726 244.443 152.897 L 244.443 147.535 C 244.443 146.706 243.771 146.035 242.943 146.035 Z"/>
  <path d="M 248.06 143.587 C 247.231 143.587 246.56 144.258 246.56 145.087 L 246.56 155.345 C 246.56 156.174 247.231 156.845 248.06 156.845 C 248.889 156.845 249.56 156.174 249.56 155.345 L 249.56 145.087 C 249.56 144.258 248.889 143.587 248.06 143.587 Z"/>
  <path d="M 253.178 136.897 C 252.349 136.897 251.678 137.568 251.678 138.397 L 251.678 162.035 C 251.678 162.864 252.349 163.535 253.178 163.535 C 254.007 163.535 254.678 162.864 254.678 162.035 L 254.678 138.397 C 254.678 137.569 254.007 136.897 253.178 136.897 Z"/>
  <path d="M 258.296 136.897 C 257.467 136.897 256.796 137.568 256.796 138.397 L 256.796 162.035 C 256.796 162.864 257.467 163.535 258.296 163.535 C 259.125 163.535 259.796 162.864 259.796 162.035 L 259.796 138.397 C 259.796 137.569 259.124 136.897 258.296 136.897 Z"/>
  <path d="M 263.413 118.617 C 262.584 118.617 261.913 119.288 261.913 120.117 L 261.913 180.314 C 261.913 181.143 262.584 181.814 263.413 181.814 C 264.242 181.814 264.913 181.143 264.913 180.314 L 264.913 120.117 C 264.913 119.289 264.242 118.617 263.413 118.617 Z"/>
  <path d="M 268.531 120.649 C 267.702 120.649 267.031 121.32 267.031 122.149 L 267.031 178.283 C 267.031 179.112 267.702 179.783 268.531 179.783 C 269.36 179.783 270.031 179.112 270.031 178.283 L 270.031 122.149 C 270.031 121.32 269.36 120.649 268.531 120.649 Z"/>
  <path d="M 273.649 138.815 C 272.82 138.815 272.149 139.486 272.149 140.315 L 272.149 160.118 C 272.149 160.947 272.82 161.618 273.649 161.618 C 274.478 161.618 275.149 160.947 275.149 160.118 L 275.149 140.315 C 275.149 139.486 274.477 138.815 273.649 138.815 Z"/>
  <path d="M 278.766 108.551 C 277.937 108.551 277.266 109.222 277.266 110.051 L 277.266 190.381 C 277.266 191.21 277.937 191.881 278.766 191.881 C 279.595 191.881 280.266 191.21 280.266 190.381 L 280.266 110.051 C 280.266 109.222 279.595 108.551 278.766 108.551 Z"/>
  <path d="M 283.884 112.013 C 283.055 112.013 282.384 112.684 282.384 113.513 L 282.384 186.919 C 282.384 187.748 283.055 188.419 283.884 188.419 C 284.713 188.419 285.384 187.748 285.384 186.919 L 285.384 113.513 C 285.384 112.684 284.712 112.013 283.884 112.013 Z"/>
  <path d="M 289.001 118.617 C 288.172 118.617 287.501 119.288 287.501 120.117 L 287.501 180.314 C 287.501 181.143 288.172 181.814 289.001 181.814 C 289.83 181.814 290.501 181.143 290.501 180.314 L 290.501 120.117 C 290.501 119.289 289.83 118.617 289.001 118.617 Z"/>
  <path d="M 294.119 141.08 C 293.29 141.08 292.619 141.751 292.619 142.58 L 292.619 157.852 C 292.619 158.681 293.29 159.352 294.119 159.352 C 294.948 159.352 295.619 158.681 295.619 157.852 L 295.619 142.58 C 295.619 141.751 294.948 141.08 294.119 141.08 Z"/>
  <path d="M 299.237 141.08 C 298.408 141.08 297.737 141.751 297.737 142.58 L 297.737 157.852 C 297.737 158.681 298.408 159.352 299.237 159.352 C 300.066 159.352 300.737 158.681 300.737 157.852 L 300.737 142.58 C 300.737 141.751 300.065 141.08 299.237 141.08 Z"/>
  <path d="M 304.354 127.435 C 303.525 127.435 302.854 128.106 302.854 128.935 L 302.854 171.498 C 302.854 172.327 303.525 172.998 304.354 172.998 C 305.183 172.998 305.854 172.327 305.854 171.498 L 305.854 128.935 C 305.854 128.106 305.183 127.435 304.354 127.435 Z"/>
  <path d="M 309.472 137.334 C 308.643 137.334 307.972 138.005 307.972 138.834 L 307.972 161.599 C 307.972 162.428 308.643 163.099 309.472 163.099 C 310.301 163.099 310.972 162.428 310.972 161.599 L 310.972 138.834 C 310.972 138.005 310.301 137.334 309.472 137.334 Z"/>
  <path d="M 314.59 144.821 C 313.761 144.821 313.09 145.492 313.09 146.321 L 313.09 154.11 C 313.09 154.939 313.761 155.61 314.59 155.61 C 315.419 155.61 316.09 154.939 316.09 154.11 L 316.09 146.321 C 316.09 145.493 315.418 144.821 314.59 144.821 Z"/>
  <path d="M 319.707 145.663 C 318.878 145.663 318.207 146.334 318.207 147.163 L 318.207 153.268 C 318.207 154.097 318.878 154.768 319.707 154.768 C 320.536 154.768 321.207 154.097 321.207 153.268 L 321.207 147.163 C 321.207 146.335 320.536 145.663 319.707 145.663 Z"/>
  <path d="M 324.825 145.663 C 323.996 145.663 323.325 146.334 323.325 147.163 L 323.325 153.268 C 323.325 154.097 323.996 154.768 324.825 154.768 C 325.654 154.768 326.325 154.097 326.325 153.268 L 326.325 147.163 C 326.325 146.335 325.654 145.663 324.825 145.663 Z"/>
</svg>